HIERARCHY
ROOT Hips
{
	OFFSET	0.00	0.00	0.00
	CHANNELS 6 Xposition Yposition Zposition Zrotation Xrotation Yrotation
	JOINT LeftUpLeg
	{
		OFFSET	 0.126116	-0.014019	-0.065224
		CHANNELS 3 Zrotation Xrotation Yrotation
		JOINT LeftLeg
		{
			OFFSET	 0.000000	 0.000000	 0.569914
			CHANNELS 3 Zrotation Xrotation Yrotation
			JOINT LeftFoot
			{
				OFFSET	 0.000000	 0.000000	 0.544423
				CHANNELS 3 Zrotation Xrotation Yrotation
				JOINT LeftToeBase
				{
					OFFSET	 0.000000	 0.000000	 0.207117
					CHANNELS 3 Zrotation Xrotation Yrotation
					End Site
					{
						OFFSET	 0.000000	 0.000000	 0.207117
					}
				}
			}
		}
	}
	JOINT RightUpLeg
	{
		OFFSET	-0.124023	-0.008373	-0.065224
		CHANNELS 3 Zrotation Xrotation Yrotation
		JOINT RightLeg
		{
			OFFSET	 0.000000	 0.000000	 0.570047
			CHANNELS 3 Zrotation Xrotation Yrotation
			JOINT RightFoot
			{
				OFFSET	 0.000000	 0.000000	 0.544354
				CHANNELS 3 Zrotation Xrotation Yrotation
				JOINT RightToeBase
				{
					OFFSET	 0.000000	 0.000000	 0.207540
					CHANNELS 3 Zrotation Xrotation Yrotation
					End Site
					{
						OFFSET	 0.000000	 0.000000	 0.207540
					}
				}
			}
		}
	}
	JOINT Spine
	{
		OFFSET	 0.000184	-0.007763	 0.117403
		CHANNELS 3 Zrotation Xrotation Yrotation
		JOINT Spine1
		{
			OFFSET	 0.000000	 0.000000	 0.137269
			CHANNELS 3 Zrotation Xrotation Yrotation
			JOINT Spine2
			{
				OFFSET	 0.000000	 0.000000	 0.156879
				CHANNELS 3 Zrotation Xrotation Yrotation
				JOINT LeftShoulder
				{
					OFFSET	 0.080501	-0.002496	 0.160144
					CHANNELS 3 Zrotation Xrotation Yrotation
					JOINT LeftArm
					{
						OFFSET	 0.000000	 0.000000	 0.164363
						CHANNELS 3 Zrotation Xrotation Yrotation
						JOINT LeftForeArm
						{
							OFFSET	 0.000000	 0.000000	 0.364576
							CHANNELS 3 Zrotation Xrotation Yrotation
							JOINT LeftHand
							{
								OFFSET	 0.000000	 0.000000	 0.360812
								CHANNELS 3 Zrotation Xrotation Yrotation
								JOINT LeftHandIndex1
								{
									OFFSET	 0.000000	 0.000000	 0.086006
									CHANNELS 3 Zrotation Xrotation Yrotation
									JOINT LeftHandIndex2
									{
										OFFSET	 0.000000	 0.000000	 0.047237
										CHANNELS 3 Zrotation Xrotation Yrotation
										JOINT LeftHandIndex3
										{
											OFFSET	-0.004284	-0.000551	 0.038165
											CHANNELS 3 Zrotation Xrotation Yrotation
											End Site
											{
												OFFSET	-0.004284	-0.000551	 0.038165
											}
										}
									}
								}
							}
						}
					}
				}
				JOINT Neck
				{
					OFFSET	 0.000000	 0.000000	 0.176489
					CHANNELS 3 Zrotation Xrotation Yrotation
					JOINT Head
					{
						OFFSET	 0.000000	-0.001747	 0.077940
						CHANNELS 3 Zrotation Xrotation Yrotation
						End Site
						{
							OFFSET	 0.000000	-0.001747	 0.077940
						}
					}
				}
				JOINT RightShoulder
				{
					OFFSET	-0.080363	 0.000306	 0.159706
					CHANNELS 3 Zrotation Xrotation Yrotation
					JOINT RightArm
					{
						OFFSET	 0.000000	 0.000000	 0.164196
						CHANNELS 3 Zrotation Xrotation Yrotation
						JOINT RightForeArm
						{
							OFFSET	 0.000000	 0.000000	 0.365611
							CHANNELS 3 Zrotation Xrotation Yrotation
							JOINT RightHand
							{
								OFFSET	 0.000000	 0.000000	 0.360648
								CHANNELS 3 Zrotation Xrotation Yrotation
								JOINT RightHandIndex1
								{
									OFFSET	 0.000000	 0.000000	 0.069977
									CHANNELS 3 Zrotation Xrotation Yrotation
									JOINT RightHandIndex2
									{
										OFFSET	 0.000000	 0.000000	 0.052305
										CHANNELS 3 Zrotation Xrotation Yrotation
										JOINT RightHandIndex3
										{
											OFFSET	 0.009002	-0.000782	 0.042196
											CHANNELS 3 Zrotation Xrotation Yrotation
											End Site
											{
												OFFSET	 0.009002	-0.000782	 0.042196
											}
										}
									}
								}
							}
						}
					}
				}
			}
		}
	}
}
MOTION
Frames:    12
Frame Time: 0.03333334
-0.717818	-0.024930	 1.253656	 169.083200	-5.580945	 2.234025	-2.492854	-1.941035	 177.819400	-2.172097	-33.759640	-2.022276	-55.809100	 81.186080	 45.326630	-2.385833	 28.452760	 0.000004	-21.309410	-5.665726	-171.759800	 10.318610	-33.898440	 5.923862	 26.628040	 83.521610	-27.899670	 2.384659	 28.388700	-0.000001	 6.543797	-1.213697	-16.064560	 3.140853	 12.806590	-5.306294	 16.095720	-1.292999	 12.477660	-91.776110	 78.527360	 180.000000	-1.671068	 49.394710	-27.948150	-24.251350	 20.531560	-73.688110	-38.172520	-36.049370	-22.104610	-4.130354	 21.526190	 0.991307	-5.167926	 0.731697	 3.519349	-1.378229	 35.397820	-2.634230	 14.547240	 5.940564	-2.549347	 10.316990	-13.578440	-1.951019	 89.782160	 78.203890	 179.999900	-63.105730	 2.567235	 77.086620	 10.656030	 1.225199	 135.372600	 9.927222	 21.647160	 21.564670	 5.716295	 19.173350	-3.684826	 5.027458	 0.246833	-9.377971	-2.350882	 35.473990	 5.254307
-0.718015	-0.025660	 1.253200	 168.677200	-5.856659	 2.492407	-2.712112	-1.683066	 177.817200	-2.008451	-33.802830	-1.933274	-55.020130	 81.095340	 44.343540	-2.385833	 28.452760	 0.000004	-21.688120	-5.512529	-171.702000	 10.479420	-33.771390	 5.995970	 24.957310	 83.345420	-26.456780	 2.384659	 28.388700	-0.000001	 7.622187	-0.956904	-16.908610	 3.548599	 13.299770	-5.574684	 16.219070	-2.496783	 13.898930	-91.776270	 78.527380	-179.999900	-7.594773	 46.660500	-26.408090	-23.708370	 21.072840	-75.487530	-38.840970	-36.068240	-22.512870	-4.130354	 21.526190	 0.991307	-5.167926	 0.731697	 3.519349	-1.378229	 35.397820	-2.634230	 14.754110	 5.396137	-3.350178	 10.137980	-13.991000	-3.330211	 89.782070	 78.203850	-180.000000	-63.718510	 1.869832	 77.576770	 11.143840	 0.759372	 134.767300	 6.994202	 21.261270	 22.760780	 5.716295	 19.173350	-3.684826	 5.027458	 0.246833	-9.377971	-2.350882	 35.473990	 5.254307
-0.717857	-0.026323	 1.252805	 168.388500	-5.999815	 2.654178	-2.924045	-1.618281	 177.930200	-1.879028	-33.817970	-1.861810	-54.027050	 81.106380	 43.189740	-2.385833	 28.452760	 0.000004	-21.968920	-5.560539	-171.591100	 10.615040	-33.715410	 6.064413	 23.929710	 83.132190	-25.598510	 2.384659	 28.388700	-0.000001	 8.449914	-0.974435	-17.360790	 3.861439	 13.855730	-5.534224	 16.352620	-3.513702	 14.589670	-91.776190	 78.527400	-180.000000	-13.066440	 44.369280	-25.794760	-23.600930	 21.362190	-75.946830	-39.421110	-36.125240	-22.894730	-4.130354	 21.526190	 0.991307	-5.167926	 0.731697	 3.519349	-1.378229	 35.397820	-2.634230	 14.891490	 5.152856	-3.863116	 10.014990	-14.468940	-4.025140	 89.782100	 78.203850	 180.000000	-63.907160	 1.225325	 77.926800	 11.542810	 0.362351	 134.355200	 4.680201	 20.765100	 23.622070	 5.716295	 19.173350	-3.684826	 5.027458	 0.246833	-9.377971	-2.350882	 35.473990	 5.254307
-0.717262	-0.027001	 1.252296	 168.128800	-6.046762	 2.748267	-3.259660	-1.668711	 178.154600	-1.740413	-33.797960	-1.783585	-53.151820	 81.229270	 42.152930	-2.385833	 28.452760	 0.000004	-22.281030	-5.791564	-171.431000	 10.775950	-33.741280	 6.160149	 23.267590	 82.913710	-25.082960	 2.384659	 28.388700	-0.000001	 9.311317	-1.314687	-17.519270	 4.283602	 14.596040	-5.354973	 16.495200	-4.603329	 14.753930	-91.776160	 78.527380	 180.000000	-19.447450	 42.021980	-26.217810	-23.977190	 21.465000	-75.035960	-40.134620	-36.255800	-23.407680	-4.130354	 21.526190	 0.991307	-5.167926	 0.731697	 3.519349	-1.378229	 35.397820	-2.634230	 15.001830	 5.216926	-4.210057	 9.929389	-15.249460	-4.091206	 89.782100	 78.203870	-180.000000	-63.648050	 0.314696	 78.275030	 11.997990	-0.104567	 133.988800	 2.165815	 19.886440	 24.266340	 5.716295	 19.173350	-3.684826	 5.027458	 0.246833	-9.377971	-2.350882	 35.473990	 5.254307
-0.716721	-0.027543	 1.251886	 167.875800	-6.080188	 2.734930	-3.615889	-1.627671	 178.392500	-1.609053	-33.682960	-1.705213	-52.272770	 81.299200	 41.138350	-2.385833	 28.452760	 0.000004	-22.578510	-6.022149	-171.257200	 10.937580	-33.837060	 6.267768	 22.958400	 82.860430	-24.889930	 2.384659	 28.388700	-0.000001	 10.242770	-1.702172	-17.594500	 4.812132	 15.220730	-5.281551	 16.606290	-5.569394	 14.882660	-91.776190	 78.527400	-180.000000	-24.882540	 40.019460	-27.955150	-24.818050	 21.407190	-72.848740	-40.838540	-36.360040	-23.886450	-4.130354	 21.526190	 0.991307	-5.167926	 0.731697	 3.519349	-1.378229	 35.397820	-2.634230	 15.085840	 5.393807	-4.510589	 9.869259	-16.121420	-4.055693	 89.782100	 78.203900	-180.000000	-63.018140	-0.738662	 78.793950	 12.511320	-0.645129	 133.595000	-0.298772	 18.759160	 24.492790	 5.716295	 19.173350	-3.684826	 5.027458	 0.246833	-9.377971	-2.350882	 35.473990	 5.254307
-0.716248	-0.027899	 1.251633	 167.686100	-6.087936	 2.637067	-3.904414	-1.547889	 178.594900	-1.513219	-33.515120	-1.644714	-51.471610	 81.306810	 40.252480	-2.385833	 28.452760	 0.000004	-22.790360	-6.234606	-171.109800	 11.066760	-33.992810	 6.367111	 23.016320	 82.948560	-25.012800	 2.384659	 28.388700	-0.000001	 11.014800	-2.065140	-17.563150	 5.299194	 15.637800	-5.239596	 16.667390	-6.242292	 14.910510	-91.776240	 78.527360	-180.000000	-28.608380	 38.766920	-29.793120	-25.579710	 21.283300	-70.838940	-41.374070	-36.420790	-24.227580	-4.130354	 21.526190	 0.991307	-5.167926	 0.731697	 3.519349	-1.378229	 35.397820	-2.634230	 15.130240	 5.621064	-4.706166	 9.844718	-16.869060	-3.945876	 89.782100	 78.203900	 180.000000	-62.212550	-1.610538	 79.343860	 12.954520	-1.121872	 133.310800	-2.126640	 17.758870	 24.298800	 5.716295	 19.173350	-3.684826	 5.027458	 0.246833	-9.377971	-2.350882	 35.473990	 5.254307
-0.715856	-0.028268	 1.251443	 167.433000	-6.111423	 2.504472	-4.299991	-1.382635	 178.835600	-1.382257	-33.272490	-1.562226	-50.597640	 81.271740	 39.274240	-2.385833	 28.452760	 0.000004	-23.070460	-6.451227	-170.932500	 11.235490	-34.174590	 6.494148	 22.879010	 83.097290	-24.954010	 2.384659	 28.388700	-0.000001	 12.063480	-2.500018	-17.548770	 5.985982	 16.100530	-5.302795	 16.735120	-7.047913	 15.050940	-91.776120	 78.527360	 179.999900	-32.749900	 37.317920	-32.724760	-26.759510	 20.987380	-67.671390	-41.961390	-36.439060	-24.543660	-4.130354	 21.526190	 0.991307	-5.167926	 0.731697	 3.519349	-1.378229	 35.397820	-2.634230	 15.160780	 5.820797	-4.935277	 9.806293	-17.746320	-3.907626	 89.782100	 78.203900	 180.000000	-61.018920	-2.690263	 80.220270	 13.564970	-1.797158	 132.875700	-4.421547	 16.538370	 23.779700	 5.716295	 19.173350	-3.684826	 5.027458	 0.246833	-9.377971	-2.350882	 35.473990	 5.254307
-0.716029	-0.028434	 1.251441	 167.205400	-6.151420	 2.398861	-4.646363	-1.192454	 179.065600	-1.263669	-33.076810	-1.489238	-49.889650	 81.247900	 38.461190	-2.385833	 28.452760	 0.000004	-23.304090	-6.548881	-170.747400	 11.370360	-34.227460	 6.580902	 22.562770	 83.172810	-24.720870	 2.384659	 28.388700	-0.000001	 12.977520	-2.781738	-17.619650	 6.573351	 16.472800	-5.489925	 16.801810	-7.710133	 15.325310	-91.776150	 78.527360	 180.000000	-35.662650	 36.181460	-35.707500	-28.032840	 20.536100	-64.159770	-42.342390	-36.392350	-24.674500	-4.130354	 21.526190	 0.991307	-5.167926	 0.731697	 3.519349	-1.378229	 35.397820	-2.634230	 15.156140	 5.887361	-5.104743	 9.763391	-18.398220	-3.990844	 89.782040	 78.203870	-180.000000	-59.978200	-3.617920	 81.033710	 14.123090	-2.447318	 132.312300	-6.490982	 15.670040	 23.379160	 5.716295	 19.173350	-3.684826	 5.027458	 0.246833	-9.377971	-2.350882	 35.473990	 5.254307
-0.716888	-0.028296	 1.251653	 166.947900	-6.229668	 2.352593	-5.128188	-0.876613	 179.313600	-1.104825	-32.908280	-1.396092	-50.225760	 81.399790	 38.635480	-2.385833	 28.452760	 0.000004	-23.634090	-6.440950	-170.524200	 11.503240	-34.075580	 6.632071	 22.440010	 83.163510	-24.723460	 2.384659	 28.388700	-0.000001	 13.999240	-3.042696	-17.783650	 7.296603	 16.882050	-6.013233	 16.876370	-8.355187	 15.728050	-91.776240	 78.527420	-180.000000	-38.423810	 35.265550	-39.254940	-29.513700	 19.850400	-59.930210	-42.798840	-36.378930	-24.835760	-4.130354	 21.526190	 0.991307	-5.167926	 0.731697	 3.519349	-1.378229	 35.397820	-2.634230	 15.094420	 5.773561	-5.188327	 9.686329	-18.877270	-4.111093	 89.782040	 78.203850	-179.999900	-58.825010	-4.749337	 81.922900	 14.738000	-3.220896	 131.451500	-8.947690	 14.795560	 22.929040	 5.716295	 19.173350	-3.684826	 5.027458	 0.246833	-9.377971	-2.350882	 35.473990	 5.254307
-0.717937	-0.027952	 1.251952	 166.736500	-6.329714	 2.388566	-5.630420	-0.552665	 179.487500	-0.944218	-32.817350	-1.305509	-51.635170	 81.676240	 39.876290	-2.385833	 28.452760	 0.000004	-23.980630	-6.214913	-170.366200	 11.607620	-33.834480	 6.650939	 22.386480	 83.090810	-24.788640	 2.384659	 28.388700	-0.000001	 14.850020	-3.249988	-17.961220	 7.993309	 17.143560	-6.688831	 16.914030	-8.742903	 16.067530	-91.776180	 78.527420	-180.000000	-40.361250	 34.888030	-42.178080	-30.637480	 19.187230	-56.558010	-43.208500	-36.413580	-24.985890	-4.130354	 21.526190	 0.991307	-5.167926	 0.731697	 3.519349	-1.378229	 35.397820	-2.634230	 14.977460	 5.458085	-5.131639	 9.590645	-18.970710	-4.240989	 89.782090	 78.203870	 180.000000	-57.754350	-5.683475	 82.742920	 15.228810	-3.899564	 130.564300	-10.947490	 14.110130	 22.435200	 5.716295	 19.173350	-3.684826	 5.027458	 0.246833	-9.377971	-2.350882	 35.473990	 5.254307
-0.719245	-0.027528	 1.252307	 166.504800	-6.499605	 2.357872	-6.057692	-0.195402	 179.744300	-0.796687	-32.691200	-1.221256	-52.375780	 81.822950	 40.482960	-2.385833	 28.452760	 0.000004	-24.336500	-6.058879	-170.122100	 11.740550	-33.653330	 6.695716	 22.033410	 83.050390	-24.554150	 2.384659	 28.388700	-0.000001	 15.883770	-3.430604	-18.102220	 8.833752	 17.362970	-7.460452	 16.907070	-9.206503	 16.439050	-91.776280	 78.527420	-179.999900	-41.920570	 34.428030	-45.547990	-31.906800	 18.305420	-52.572990	-43.486970	-36.380350	-24.987620	-4.130354	 21.526190	 0.991307	-5.167926	 0.731697	 3.519349	-1.378229	 35.397820	-2.634230	 14.810040	 5.344959	-5.042017	 9.449417	-19.426890	-4.516990	 89.782050	 78.203870	-180.000000	-56.206460	-6.584827	 83.922390	 15.734260	-4.698048	 129.314100	-13.049340	 13.419300	 21.617060	 5.716295	 19.173350	-3.684826	 5.027458	 0.246833	-9.377971	-2.350882	 35.473990	 5.254307
-0.720670	-0.027133	 1.252668	 166.303400	-6.729421	 2.253472	-6.284542	 0.111647	-179.958700	-0.702653	-32.571590	-1.166617	-52.016070	 81.772160	 40.064190	-2.385833	 28.452760	 0.000004	-24.619480	-6.031955	-169.840600	 11.875560	-33.580050	 6.759951	 21.169610	 83.047430	-23.778120	 2.384659	 28.388700	-0.000001	 16.901600	-3.505441	-18.189850	 9.652217	 17.456930	-8.193422	 16.843600	-9.640156	 16.782570	-91.776240	 78.527360	-180.000000	-42.619270	 33.974380	-48.414360	-32.854590	 17.529120	-49.423550	-43.523150	-36.271830	-24.801720	-4.130354	 21.526190	 0.991307	-5.167926	 0.731697	 3.519349	-1.378229	 35.397820	-2.634230	 14.618410	 5.519399	-4.930029	 9.279520	-20.233930	-4.915915	 89.782110	 78.203870	 180.000000	-54.512290	-7.282551	 85.183270	 16.131610	-5.452372	 127.926800	-14.849620	 12.873510	 20.658400	 5.716295	 19.173350	-3.684826	 5.027458	 0.246833	-9.377971	-2.350882	 35.473990	 5.254307
